<svg id="visual" viewBox="0 0 960 540" width="960" height="540" xmlns="http://www.w3.org/2000/svg" xmlns:xlink="http://www.w3.org/1999/xlink" version="1.1"><rect x="0" y="0" width="960" height="540" fill="#ffe8e8"></rect><path d="M0 362L22.8 362.7C45.7 363.3 91.3 364.7 137 360C182.7 355.3 228.3 344.7 274 347.2C319.7 349.7 365.3 365.3 411.2 370.3C457 375.3 503 369.7 548.8 363C594.7 356.3 640.3 348.7 686 343.7C731.7 338.7 777.3 336.3 823 344.5C868.7 352.7 914.3 371.3 937.2 380.7L960 390L960 541L937.2 541C914.3 541 868.7 541 823 541C777.3 541 731.7 541 686 541C640.3 541 594.7 541 548.8 541C503 541 457 541 411.2 541C365.3 541 319.7 541 274 541C228.3 541 182.7 541 137 541C91.3 541 45.7 541 22.8 541L0 541Z" fill="#69c1fa"></path><path d="M0 389L22.8 386C45.7 383 91.3 377 137 380.7C182.7 384.3 228.3 397.7 274 400.8C319.7 404 365.3 397 411.2 395.8C457 394.7 503 399.3 548.8 405.3C594.7 411.3 640.3 418.7 686 412.7C731.7 406.7 777.3 387.3 823 376.3C868.7 365.3 914.3 362.7 937.2 361.3L960 360L960 541L937.2 541C914.3 541 868.7 541 823 541C777.3 541 731.7 541 686 541C640.3 541 594.7 541 548.8 541C503 541 457 541 411.2 541C365.3 541 319.7 541 274 541C228.3 541 182.7 541 137 541C91.3 541 45.7 541 22.8 541L0 541Z" fill="#2da1f8"></path><path d="M0 395L22.8 404C45.7 413 91.3 431 137 434.5C182.7 438 228.3 427 274 424.2C319.7 421.3 365.3 426.7 411.2 426C457 425.3 503 418.7 548.8 413.2C594.7 407.7 640.3 403.3 686 408C731.7 412.7 777.3 426.3 823 426.2C868.7 426 914.3 412 937.2 405L960 398L960 541L937.2 541C914.3 541 868.7 541 823 541C777.3 541 731.7 541 686 541C640.3 541 594.7 541 548.8 541C503 541 457 541 411.2 541C365.3 541 319.7 541 274 541C228.3 541 182.7 541 137 541C91.3 541 45.7 541 22.8 541L0 541Z" fill="#007ef0"></path><path d="M0 466L22.8 460.7C45.7 455.3 91.3 444.7 137 445.3C182.7 446 228.3 458 274 461C319.7 464 365.3 458 411.2 453.2C457 448.3 503 444.7 548.8 444.3C594.7 444 640.3 447 686 450.2C731.7 453.3 777.3 456.7 823 456C868.7 455.3 914.3 450.7 937.2 448.3L960 446L960 541L937.2 541C914.3 541 868.7 541 823 541C777.3 541 731.7 541 686 541C640.3 541 594.7 541 548.8 541C503 541 457 541 411.2 541C365.3 541 319.7 541 274 541C228.3 541 182.7 541 137 541C91.3 541 45.7 541 22.8 541L0 541Z" fill="#0457e0"></path><path d="M0 494L22.8 490.3C45.7 486.7 91.3 479.3 137 479.2C182.7 479 228.3 486 274 492.3C319.7 498.7 365.3 504.3 411.2 503.7C457 503 503 496 548.8 489.7C594.7 483.3 640.3 477.7 686 480.8C731.7 484 777.3 496 823 503.2C868.7 510.3 914.3 512.7 937.2 513.8L960 515L960 541L937.2 541C914.3 541 868.7 541 823 541C777.3 541 731.7 541 686 541C640.3 541 594.7 541 548.8 541C503 541 457 541 411.2 541C365.3 541 319.7 541 274 541C228.3 541 182.7 541 137 541C91.3 541 45.7 541 22.8 541L0 541Z" fill="#3824c7"></path></svg>